# xmcd
# Copyright (C) 1995-1998 Ti Kan
#
# Track frame offsets:
#       150
#       21651
#       41532
#       70809
#       89188
#       114147
#       135242
#       154278
#
# Disc length: 2311 seconds
#
# Revision: 0
# Processed by: cddbd v1.5.2PL0 Copyright (c) Steve Scherf et al.
# Submitted via: CD-Import v1.0
#
DISCID=68090508
DTITLE=Paco De Lucia - Cositas Buenas
DYEAR=1900
DGENRE=
TTITLE0=Patio Custodio
TTITLE1=Cositas Buenas
TTITLE2=Antonia
TTITLE3=El Dengue
TTITLE4=Volar
TTITLE5=El Tesorillo
TTITLE6=Que Venga El Alba
TTITLE7=Casa Bernardo
EXTD=
EXTT0=
EXTT1=
EXTT2=
EXTT3=
EXTT4=
EXTT5=
EXTT6=
EXTT7=
PLAYORDER=
